<?xml version="1.0" standalone="no"?><!DOCTYPE svg PUBLIC "-//W3C//DTD SVG 1.1//EN" "http://www.w3.org/Graphics/SVG/1.1/DTD/svg11.dtd"><svg t="1643453071952" class="icon" viewBox="0 0 1024 1024" version="1.1" xmlns="http://www.w3.org/2000/svg" p-id="8246" xmlns:xlink="http://www.w3.org/1999/xlink" width="200" height="200"><defs><style type="text/css"></style></defs><path d="M243.113 158.084c92.034-54.354 212.56-41.993 291.636 37.082 62.815 62.815 83.531 151.786 62.15 231.854l231.764 231.765c46.394 46.395 46.858 121.326 1.391 168.291l-1.391 1.415c-46.863 46.863-122.843 46.863-169.706 0L427.193 596.726c-80.068 21.383-169.04 0.666-231.856-62.149-78.284-78.285-91.181-197.196-38.691-288.867l1.61-2.77 132.06 132.056c23.43 23.432 61.42 23.432 84.852 0 23.197-23.197 23.43-60.663 0.696-84.145l-0.696-0.707-132.055-132.06z m-61.127 187.782l-0.13 1.289c-5.092 53.223 13.075 107.82 53.08 147.824 46.538 46.539 113.355 64.142 175.914 48.139l1.894-0.496 31.207-8.334 254.604 254.605c24.993 24.994 65.516 24.994 90.51 0 24.743-24.744 24.99-64.707 0.742-89.755l-0.742-0.755L534.46 443.778l8.334-31.206c16.851-63.101-0.635-130.8-47.643-177.808-40.004-40.004-94.6-58.171-147.824-53.08l-1.29 0.131 69.048 69.053 0.856 0.869 0.158 0.163c44.017 45.468 43.464 117.897-1.333 162.694-44.848 44.848-117.282 45.297-162.681 1.346l-1.367-1.345-68.732-68.73z m13.351-150.7a243.938 243.938 0 0 1 8.995-8.55l-17.544 17.545a243.728 243.728 0 0 1 7.086-7.52l1.463-1.475z" p-id="8247"></path></svg>