<svg id="ic_dashboard" xmlns="http://www.w3.org/2000/svg" width="24" height="24" viewBox="0 0 24 24">
  <defs>
    <style>
      .cls-1 {
        fill: none;
      }

      .cls-2 {
        fill: #666;
      }
    </style>
  </defs>
  <g id="home">
    <path id="路径_372" data-name="路径 372" class="cls-1" d="M0,0H24V24H0Z"/>
  </g>
  <path id="Shape" class="cls-2" d="M13,20H1a1,1,0,0,1-1-1V6.5a2,2,0,0,1,2-2H6V2A2,2,0,0,1,8,0h4a2,2,0,0,1,2,2V9h4a2,2,0,0,1,2,2v8a1,1,0,0,1-1,1Zm5-2V11H14v7ZM8,18h4V11q0-.03,0-.059V2H8ZM2,18H6V6.5H2Z" transform="translate(2 2)"/>
</svg>
