<svg xmlns="http://www.w3.org/2000/svg" width="29.979" height="29.979" viewBox="0 0 29.979 29.979"><defs><style>.a{fill:#fff;}</style></defs><path class="a" d="M90.981,83.985h3v2h-3v3c0,1.379-.619,2-2,2h-3v3h-2v-3h-4v3h-2v-3h-4v3h-2v-3H69c-1.379,0-2-.619-2-2v-3H64v-2h3v-4H64v-2h3v-4H64V72h3V69c0-1.381.619-2,2-2h3V64h2v3h4V64h2v3h4V64h2v3h3c1.379,0,2,.619,2,2v3h3v2h-3v4h3v2h-3ZM88.983,69H69V88.981H88.981V69Zm-15.989,3H84.985c.689,0,1,.308,1,1V84.985c0,.69-.31,1-1,1H72.994c-.69,0-1-.31-1-1V72.993C71.994,72.3,72.3,71.994,72.994,71.994Z" transform="translate(-64 -64)"/></svg>