<svg xmlns="http://www.w3.org/2000/svg" width="29.177" height="27.232" viewBox="0 0 29.177 27.232"><defs><style>.a{fill:#fff;}</style></defs><path class="a" d="M26.746,17.329V2.476H2.431V17.329H4.863v2.476H2.431v4.952H3.647V22.282H25.53v2.475h1.216V19.805H24.314V17.33h2.431Zm-6.079,7.428v2.475H18.236V24.757H15.8v2.475H13.373V24.757H10.942v2.475H8.51V24.757H6.079v2.475H0V2.475A2.454,2.454,0,0,1,2.431,0H26.746a2.454,2.454,0,0,1,2.431,2.475V27.232H23.1V24.757H20.667ZM3.647,13.616H7.294V4.952H3.647Zm6.079,0h3.647V4.952H9.726Zm6.079,0h3.647V4.952H15.8v8.664Zm6.079,0H25.53V4.952H21.883Z"/></svg>