<svg xmlns="http://www.w3.org/2000/svg" xmlns:xlink="http://www.w3.org/1999/xlink" width="39.048" height="22.758" viewBox="0 0 39.048 22.758"><defs><style>.a,.c{fill:#fff;}.a{stroke:#fff;}.b,.g{fill:none;}.d{clip-path:url(#a);}.e,.f{stroke:none;}.f{fill:#fff;}</style><clipPath id="a"><path class="a" d="M0,14V0H34V5.9H5.913V14Z" transform="translate(-0.225 -0.197)"/></clipPath></defs><g transform="translate(-445 -116.999)"><g transform="translate(452.313 123.79)"><g class="b" transform="translate(0 0)"><path class="e" d="M21.857,15.968a1,1,0,0,1-1-1V12.774h-1.1v2.194a1,1,0,0,1-1,1H3.794a1,1,0,0,1-1-1V12.774H1a1,1,0,0,1-1-1V1A1,1,0,0,1,1,0H30.736a1,1,0,0,1,1,1V11.774a1,1,0,0,1-1,1H28.941v2.194a1,1,0,0,1-1,1Z"/><path class="f" d="M 27.4413013458252 14.46780014038086 L 27.4413013458252 11.27369976043701 L 30.23580169677734 11.27369976043701 L 30.23580169677734 1.50000011920929 L 1.500000834465027 1.50000011920929 L 1.500000834465027 11.27369976043701 L 4.294500827789307 11.27369976043701 L 4.294500827789307 14.46780014038086 L 18.25950050354004 14.46780014038086 L 18.25950050354004 11.27369976043701 L 22.35750007629395 11.27369976043701 L 22.35750007629395 14.46780014038086 L 27.4413013458252 14.46780014038086 M 27.9414005279541 15.96780014038086 L 21.85740089416504 15.96780014038086 C 21.30570030212402 15.96780014038086 20.85750007629395 15.51959991455078 20.85750007629395 14.96790027618408 L 20.85750007629395 12.77369976043701 L 19.75950050354004 12.77369976043701 L 19.75950050354004 14.96790027618408 C 19.75950050354004 15.51959991455078 19.31220054626465 15.96780014038086 18.75960159301758 15.96780014038086 L 3.794400930404663 15.96780014038086 C 3.241800785064697 15.96780014038086 2.794500827789307 15.51959991455078 2.794500827789307 14.96790027618408 L 2.794500827789307 12.77369976043701 L 0.9999008774757385 12.77369976043701 C 0.4473008513450623 12.77369976043701 8.483886517751671e-07 12.32639980316162 8.483886517751671e-07 11.77379989624023 L 8.483886517751671e-07 0.9999000430107117 C 8.483886517751671e-07 0.4482000768184662 0.4473008513450623 7.019043124500968e-08 0.9999008774757385 7.019043124500968e-08 L 30.73590087890625 7.019043124500968e-08 C 31.28760147094727 7.019043124500968e-08 31.73580169677734 0.4482000768184662 31.73580169677734 0.9999000430107117 L 31.73580169677734 11.77379989624023 C 31.73580169677734 12.32639980316162 31.28760147094727 12.77369976043701 30.73590087890625 12.77369976043701 L 28.9413013458252 12.77369976043701 L 28.9413013458252 14.96790027618408 C 28.9413013458252 15.51959991455078 28.4940013885498 15.96780014038086 27.9414005279541 15.96780014038086 Z"/></g><g class="a" transform="translate(5.09 12.136)"><rect class="e" width="1.003" height="3.633" rx="0.501"/><rect class="g" x="0.5" y="0.5" width="0.003" height="2.633" rx="0.001"/></g><g class="a" transform="translate(7.285 12.136)"><rect class="e" width="1.003" height="3.633" rx="0.501"/><rect class="g" x="0.5" y="0.5" width="0.003" height="2.633" rx="0.001"/></g><g class="a" transform="translate(9.481 12.136)"><rect class="e" width="1.003" height="3.633" rx="0.501"/><rect class="g" x="0.5" y="0.5" width="0.003" height="2.633" rx="0.001"/></g><g class="a" transform="translate(11.677 12.136)"><rect class="e" width="1.003" height="3.633" rx="0.501"/><rect class="g" x="0.5" y="0.5" width="0.003" height="2.633" rx="0.001"/></g><g class="a" transform="translate(13.872 12.136)"><rect class="e" width="1.003" height="3.633" rx="0.501"/><rect class="g" x="0.5" y="0.5" width="0.003" height="2.633" rx="0.001"/></g><g class="a" transform="translate(16.068 12.136)"><rect class="e" width="1.003" height="3.633" rx="0.501"/><rect class="g" x="0.5" y="0.5" width="0.003" height="2.633" rx="0.001"/></g><g class="a" transform="translate(23.153 12.136)"><rect class="e" width="1.003" height="3.633" rx="0.501"/><rect class="g" x="0.5" y="0.5" width="0.003" height="2.633" rx="0.001"/></g><g class="a" transform="translate(25.349 12.136)"><rect class="e" width="1.003" height="3.633" rx="0.501"/><rect class="g" x="0.5" y="0.5" width="0.003" height="2.633" rx="0.001"/></g><rect class="c" width="5.589" height="5.589" rx="1" transform="translate(3.193 3.493)"/><rect class="c" width="5.589" height="5.589" rx="1" transform="translate(9.88 3.493)"/><rect class="c" width="5.589" height="5.589" rx="1" transform="translate(16.467 3.493)"/><rect class="c" width="5.589" height="5.589" rx="1" transform="translate(23.153 3.493)"/></g><g class="d" transform="translate(445.225 117.196)"><g transform="translate(1.258 0.763)"><g class="b" transform="translate(0 0)"><path class="e" d="M21.857,15.968a1,1,0,0,1-1-1V12.774h-1.1v2.194a1,1,0,0,1-1,1H3.794a1,1,0,0,1-1-1V12.774H1a1,1,0,0,1-1-1V1A1,1,0,0,1,1,0H30.736a1,1,0,0,1,1,1V11.774a1,1,0,0,1-1,1H28.941v2.194a1,1,0,0,1-1,1Z"/><path class="f" d="M 27.4413013458252 14.46780014038086 L 27.4413013458252 11.27369976043701 L 30.23580169677734 11.27369976043701 L 30.23580169677734 1.50000011920929 L 1.500000834465027 1.50000011920929 L 1.500000834465027 11.27369976043701 L 4.294500827789307 11.27369976043701 L 4.294500827789307 14.46780014038086 L 18.25950050354004 14.46780014038086 L 18.25950050354004 11.27369976043701 L 22.35750007629395 11.27369976043701 L 22.35750007629395 14.46780014038086 L 27.4413013458252 14.46780014038086 M 27.9414005279541 15.96780014038086 L 21.85740089416504 15.96780014038086 C 21.30570030212402 15.96780014038086 20.85750007629395 15.51959991455078 20.85750007629395 14.96790027618408 L 20.85750007629395 12.77369976043701 L 19.75950050354004 12.77369976043701 L 19.75950050354004 14.96790027618408 C 19.75950050354004 15.51959991455078 19.31220054626465 15.96780014038086 18.75960159301758 15.96780014038086 L 3.794400930404663 15.96780014038086 C 3.241800785064697 15.96780014038086 2.794500827789307 15.51959991455078 2.794500827789307 14.96790027618408 L 2.794500827789307 12.77369976043701 L 0.9999008774757385 12.77369976043701 C 0.4473008513450623 12.77369976043701 8.483886517751671e-07 12.32639980316162 8.483886517751671e-07 11.77379989624023 L 8.483886517751671e-07 0.9999000430107117 C 8.483886517751671e-07 0.4482000768184662 0.4473008513450623 7.019043124500968e-08 0.9999008774757385 7.019043124500968e-08 L 30.73590087890625 7.019043124500968e-08 C 31.28760147094727 7.019043124500968e-08 31.73580169677734 0.4482000768184662 31.73580169677734 0.9999000430107117 L 31.73580169677734 11.77379989624023 C 31.73580169677734 12.32639980316162 31.28760147094727 12.77369976043701 30.73590087890625 12.77369976043701 L 28.9413013458252 12.77369976043701 L 28.9413013458252 14.96790027618408 C 28.9413013458252 15.51959991455078 28.4940013885498 15.96780014038086 27.9414005279541 15.96780014038086 Z"/></g><g class="a" transform="translate(5.09 12.136)"><rect class="e" width="1.003" height="3.633" rx="0.501"/><rect class="g" x="0.5" y="0.5" width="0.003" height="2.633" rx="0.001"/></g><g class="a" transform="translate(7.285 12.136)"><rect class="e" width="1.003" height="3.633" rx="0.501"/><rect class="g" x="0.5" y="0.5" width="0.003" height="2.633" rx="0.001"/></g><g class="a" transform="translate(9.481 12.136)"><rect class="e" width="1.003" height="3.633" rx="0.501"/><rect class="g" x="0.5" y="0.5" width="0.003" height="2.633" rx="0.001"/></g><g class="a" transform="translate(11.677 12.136)"><rect class="e" width="1.003" height="3.633" rx="0.501"/><rect class="g" x="0.5" y="0.5" width="0.003" height="2.633" rx="0.001"/></g><g class="a" transform="translate(13.872 12.136)"><rect class="e" width="1.003" height="3.633" rx="0.501"/><rect class="g" x="0.5" y="0.5" width="0.003" height="2.633" rx="0.001"/></g><g class="a" transform="translate(16.068 12.136)"><rect class="e" width="1.003" height="3.633" rx="0.501"/><rect class="g" x="0.5" y="0.5" width="0.003" height="2.633" rx="0.001"/></g><g class="a" transform="translate(23.153 12.136)"><rect class="e" width="1.003" height="3.633" rx="0.501"/><rect class="g" x="0.5" y="0.5" width="0.003" height="2.633" rx="0.001"/></g><g class="a" transform="translate(25.349 12.136)"><rect class="e" width="1.003" height="3.633" rx="0.501"/><rect class="g" x="0.5" y="0.5" width="0.003" height="2.633" rx="0.001"/></g><rect class="c" width="5.589" height="5.589" rx="1" transform="translate(3.193 3.493)"/><rect class="c" width="5.589" height="5.589" rx="1" transform="translate(9.88 3.493)"/><rect class="c" width="5.589" height="5.589" rx="1" transform="translate(16.467 3.493)"/><rect class="c" width="5.589" height="5.589" rx="1" transform="translate(23.153 3.493)"/></g></g></g></svg>